<?xml version="1.0" standalone="no"?>
<!DOCTYPE svg PUBLIC "-//W3C//DTD SVG 20010904//EN"
 "http://www.w3.org/TR/2001/REC-SVG-20010904/DTD/svg10.dtd">
<svg version="1.0" xmlns="http://www.w3.org/2000/svg"
 width="128.000000pt" height="128.000000pt" viewBox="0 0 128.000000 128.000000"
 preserveAspectRatio="xMidYMid meet">
<metadata>
Created by potrace 1.10, written by Peter Selinger 2001-2011
</metadata>
<g transform="translate(0.000000,128.000000) scale(0.100000,-0.100000)"
fill="#000000" stroke="none">
<path d="M560 1190 c-50 -13 -84 -31 -171 -97 -63 -47 -85 -71 -116 -127 -47
-85 -95 -140 -101 -114 -3 16 -6 15 -34 -5 -17 -12 -34 -32 -39 -45 -5 -13
-13 -21 -18 -18 -20 13 -36 -62 -36 -172 l0 -113 36 -32 c19 -18 27 -26 17
-18 -10 8 -18 10 -18 5 0 -18 89 -66 110 -59 23 7 27 25 5 25 -23 0 -18 17 8
25 18 7 14 9 -23 14 -42 6 -47 9 -70 55 -29 59 -38 152 -19 187 7 13 13 28 14
34 0 15 48 35 68 29 9 -3 17 -1 17 4 0 5 18 12 40 16 31 5 38 9 33 23 -5 13
-2 15 11 10 10 -4 18 -2 20 6 33 117 44 145 63 167 12 14 36 42 53 63 36 42
63 52 31 11 -40 -51 -20 -45 29 9 47 51 52 54 96 53 30 -1 49 4 51 12 3 6 17
12 31 12 18 0 23 -3 14 -8 -9 -6 -5 -12 13 -20 14 -7 31 -12 36 -12 23 0 79
-33 79 -46 0 -8 5 -14 12 -14 7 0 30 -17 51 -37 32 -31 37 -33 27 -13 -11 21
-11 23 1 13 8 -6 20 -32 28 -57 7 -25 17 -46 22 -46 13 0 39 -55 39 -82 0 -33
47 -98 70 -98 23 0 35 16 18 23 -8 4 -7 6 3 6 29 2 77 -64 84 -114 10 -62 -2
-116 -25 -122 -11 -3 -22 -13 -25 -22 -7 -24 -46 -59 -69 -63 -18 -3 -21 6
-31 87 -18 141 -70 232 -158 277 -39 20 -42 20 -97 3 -69 -21 -105 -18 -105
10 0 15 -13 23 -55 37 -30 9 -67 17 -81 17 -30 1 -115 -52 -130 -81 -18 -34 4
-42 49 -19 59 30 122 28 152 -4 13 -14 46 -32 73 -40 46 -14 51 -13 75 5 37
30 95 27 125 -6 33 -35 64 -100 72 -149 l6 -40 -15 31 c-8 18 -19 35 -26 39
-7 4 -5 -5 4 -23 23 -45 38 -121 30 -156 -7 -31 -7 -31 -15 -6 -7 24 -7 24 -8
-5 -2 -39 -22 -74 -52 -92 -24 -14 -24 -14 -1 -10 14 3 22 0 22 -8 0 -17 -66
-75 -86 -75 -8 0 -26 -8 -41 -17 -14 -9 -44 -18 -66 -19 -22 -1 -43 -8 -47
-14 -6 -10 -13 -9 -31 4 -13 9 -30 16 -39 16 -9 -1 -5 -6 10 -15 14 -8 20 -14
13 -15 -22 0 -43 12 -43 26 0 8 -8 14 -19 14 -10 0 -24 7 -31 15 -7 8 -8 15
-2 15 5 0 29 -7 52 -15 69 -24 69 -17 0 21 -75 40 -95 64 -113 134 -7 28 -17
51 -23 51 -16 1 -27 -57 -20 -105 6 -35 16 -52 47 -81 46 -41 47 -52 4 -29
-29 15 -29 15 -11 -5 10 -11 42 -29 70 -40 52 -19 214 -51 261 -51 36 0 92 55
155 153 60 93 73 101 173 110 49 5 116 46 124 78 3 8 -3 6 -13 -6 -17 -20 -17
-20 -10 0 4 11 11 38 16 60 5 22 13 59 18 82 12 58 -14 137 -57 170 -17 14
-31 29 -31 35 0 6 10 3 23 -8 22 -18 22 -18 4 1 -9 11 -41 27 -70 35 -40 12
-53 21 -55 38 -2 12 -8 22 -13 22 -6 0 -21 24 -35 54 -13 30 -31 60 -40 66 -8
8 -12 21 -9 31 4 13 1 19 -9 19 -9 0 -16 4 -16 9 0 4 -26 26 -57 48 -76 52
-88 59 -79 45 10 -16 -12 -14 -49 4 l-30 14 35 -5 c29 -4 32 -3 16 6 -25 15
-132 20 -176 9z m251 -76 c18 -22 9 -22 -41 -3 l-45 17 37 0 c21 0 43 -6 49
-14z m-501 -190 c-10 -27 -22 -58 -26 -69 -6 -18 -8 -18 -11 -3 -3 10 3 32 11
50 19 36 20 52 5 42 -6 -3 -3 9 6 27 14 26 19 29 26 17 5 -10 1 -33 -11 -64z
m245 -84 c24 -12 30 -18 15 -14 -14 3 -45 8 -68 11 -29 4 -39 9 -30 14 20 13
39 10 83 -11z m635 -204 c0 -28 -16 -8 -24 29 -6 28 -5 29 9 11 8 -11 15 -29
15 -40z m-66 -213 c-43 -34 -49 -28 -12 10 18 19 35 29 37 23 2 -5 -9 -20 -25
-33z m-370 -278 c-6 -16 -44 -21 -44 -7 0 14 12 22 31 22 12 0 16 -5 13 -15z"/>
<path d="M429 732 c-25 -32 -24 -55 2 -102 22 -38 42 -50 89 -50 19 0 22 2 10
10 -12 8 -12 10 2 15 10 4 22 4 29 0 15 -10 29 13 29 51 0 43 -58 98 -106 99
-26 1 -40 -5 -55 -23z m109 -65 c5 -24 -42 -44 -63 -27 -21 17 -19 30 4 30 11
0 23 5 26 11 9 14 29 6 33 -14z"/>
<path d="M731 704 c-17 -14 -31 -34 -31 -44 0 -10 -4 -22 -10 -25 -31 -19 26
-95 71 -95 80 0 115 127 47 174 -31 22 -41 20 -77 -10z m67 -57 c6 -51 -37
-77 -58 -36 -9 16 -8 26 5 45 21 32 49 28 53 -9z"/>
</g>
</svg>
